<?xml version="1.0" encoding="UTF-8" standalone="no"?>
<svg
   xmlns:dc="http://purl.org/dc/elements/1.1/"
   xmlns:cc="http://creativecommons.org/ns#"
   xmlns:rdf="http://www.w3.org/1999/02/22-rdf-syntax-ns#"
   xmlns:svg="http://www.w3.org/2000/svg"
   xmlns="http://www.w3.org/2000/svg"
   xmlns:sodipodi="http://sodipodi.sourceforge.net/DTD/sodipodi-0.dtd"
   xmlns:inkscape="http://www.inkscape.org/namespaces/inkscape"
   viewBox="0 0 64 64"
   version="1.1"
   id="svg8"
   sodipodi:docname="wind-beaufort-7.svg"
   inkscape:version="1.0.2-2 (e86c870879, 2021-01-15)">
  <metadata
     id="metadata14">
    <rdf:RDF>
      <cc:Work
         rdf:about="">
        <dc:format>image/svg+xml</dc:format>
        <dc:type
           rdf:resource="http://purl.org/dc/dcmitype/StillImage" />
      </cc:Work>
    </rdf:RDF>
  </metadata>
  <defs
     id="defs12" />
  <sodipodi:namedview
     pagecolor="#ffffff"
     bordercolor="#666666"
     borderopacity="1"
     objecttolerance="10"
     gridtolerance="10"
     guidetolerance="10"
     inkscape:pageopacity="0"
     inkscape:pageshadow="2"
     inkscape:window-width="1920"
     inkscape:window-height="986"
     id="namedview10"
     showgrid="false"
     inkscape:zoom="12.5"
     inkscape:cx="32"
     inkscape:cy="32"
     inkscape:window-x="-11"
     inkscape:window-y="-11"
     inkscape:window-maximized="1"
     inkscape:current-layer="svg8" />
  <path
     fill="none"
     stroke="#e5e7eb"
     stroke-dasharray="35 22"
     stroke-linecap="round"
     stroke-miterlimit="10"
     stroke-width="3"
     d="M43.64 20a5 5 0 113.61 8.46h-35.5"
     id="path2">
    <animate
       attributeName="stroke-dashoffset"
       dur="1.5s"
       repeatCount="indefinite"
       values="-57; 57" />
  </path>
  <path
     fill="none"
     stroke="#e5e7eb"
     stroke-dasharray="24 15"
     stroke-linecap="round"
     stroke-miterlimit="10"
     stroke-width="3"
     d="M29.14 44a5 5 0 103.61-8.46h-21"
     id="path4">
    <animate
       attributeName="stroke-dashoffset"
       begin="-.375s"
       dur="1.5s"
       repeatCount="indefinite"
       values="-39; 39" />
  </path>
  <path
     fill="#374151"
     d="M52.69 34.82a.52.52 0 01.11.39v.53a1.94 1.94 0 01-.15.72l-3.79 8.44a.64.64 0 01-.29.37 1.65 1.65 0 01-.66.09h-.82c-.33 0-.42-.17-.26-.51l3.81-8.39h-4.83a.43.43 0 01-.51-.46v-.74a.52.52 0 01.12-.39.51.51 0 01.39-.11h6.48a.53.53 0 01.4.06z"
     id="path6"
     style="fill:#ffcc00" />
</svg>
