<?xml version="1.0" encoding="UTF-8" standalone="no"?>
<svg
   xmlns:dc="http://purl.org/dc/elements/1.1/"
   xmlns:cc="http://creativecommons.org/ns#"
   xmlns:rdf="http://www.w3.org/1999/02/22-rdf-syntax-ns#"
   xmlns:svg="http://www.w3.org/2000/svg"
   xmlns="http://www.w3.org/2000/svg"
   xmlns:sodipodi="http://sodipodi.sourceforge.net/DTD/sodipodi-0.dtd"
   xmlns:inkscape="http://www.inkscape.org/namespaces/inkscape"
   viewBox="0 0 64 64"
   version="1.1"
   id="svg8"
   sodipodi:docname="wind-beaufort-3.svg"
   inkscape:version="1.0.2-2 (e86c870879, 2021-01-15)">
  <metadata
     id="metadata14">
    <rdf:RDF>
      <cc:Work
         rdf:about="">
        <dc:format>image/svg+xml</dc:format>
        <dc:type
           rdf:resource="http://purl.org/dc/dcmitype/StillImage" />
      </cc:Work>
    </rdf:RDF>
  </metadata>
  <defs
     id="defs12" />
  <sodipodi:namedview
     pagecolor="#ffffff"
     bordercolor="#666666"
     borderopacity="1"
     objecttolerance="10"
     gridtolerance="10"
     guidetolerance="10"
     inkscape:pageopacity="0"
     inkscape:pageshadow="2"
     inkscape:window-width="1920"
     inkscape:window-height="986"
     id="namedview10"
     showgrid="false"
     inkscape:zoom="12.5"
     inkscape:cx="32"
     inkscape:cy="32"
     inkscape:window-x="-11"
     inkscape:window-y="-11"
     inkscape:window-maximized="1"
     inkscape:current-layer="svg8" />
  <path
     fill="none"
     stroke="#e5e7eb"
     stroke-dasharray="35 22"
     stroke-linecap="round"
     stroke-miterlimit="10"
     stroke-width="3"
     d="M43.64 20a5 5 0 113.61 8.46h-35.5"
     id="path2">
    <animate
       attributeName="stroke-dashoffset"
       dur="1.9s"
       repeatCount="indefinite"
       values="-57; 57" />
  </path>
  <path
     fill="none"
     stroke="#e5e7eb"
     stroke-dasharray="24 15"
     stroke-linecap="round"
     stroke-miterlimit="10"
     stroke-width="3"
     d="M29.14 44a5 5 0 103.61-8.46h-21"
     id="path4">
    <animate
       attributeName="stroke-dashoffset"
       begin="-.475s"
       dur="1.9s"
       repeatCount="indefinite"
       values="-39; 39" />
  </path>
  <path
     fill="#374151"
     d="M51.44 39.79A2.54 2.54 0 0153 42.32a3 3 0 01-1 2.38 4.15 4.15 0 01-2.88.88q-3.18 0-4.07-2.52a.47.47 0 01.33-.66l.81-.28a.55.55 0 01.41 0 .69.69 0 01.25.34 2.07 2.07 0 00.75 1.06 2.74 2.74 0 001.52.33q1.89 0 1.89-1.53t-1.56-1.5h-1.58a.58.58 0 01-.4-.1.53.53 0 01-.11-.4v-.68a.55.55 0 01.11-.4.58.58 0 01.4-.11h1.29a1.65 1.65 0 001.14-.38 1.31 1.31 0 00.43-1c0-1-.56-1.46-1.68-1.46a2.5 2.5 0 00-1.42.32 2.21 2.21 0 00-.71 1.07.6.6 0 01-.24.33.56.56 0 01-.42 0l-.81-.29a.46.46 0 01-.33-.66 3.56 3.56 0 011.38-1.96 4.69 4.69 0 012.58-.62 3.8 3.8 0 012.6.81 2.82 2.82 0 01.93 2.24 2.4 2.4 0 01-1.17 2.26z"
     id="path6"
     style="fill:#99ff55" />
</svg>
