<?xml version="1.0" encoding="UTF-8" standalone="no"?>
<svg
   xmlns:dc="http://purl.org/dc/elements/1.1/"
   xmlns:cc="http://creativecommons.org/ns#"
   xmlns:rdf="http://www.w3.org/1999/02/22-rdf-syntax-ns#"
   xmlns:svg="http://www.w3.org/2000/svg"
   xmlns="http://www.w3.org/2000/svg"
   xmlns:sodipodi="http://sodipodi.sourceforge.net/DTD/sodipodi-0.dtd"
   xmlns:inkscape="http://www.inkscape.org/namespaces/inkscape"
   viewBox="0 0 64 64"
   version="1.1"
   id="svg6"
   sodipodi:docname="wind-beaufort-0.svg"
   inkscape:version="1.0.2-2 (e86c870879, 2021-01-15)">
  <metadata
     id="metadata12">
    <rdf:RDF>
      <cc:Work
         rdf:about="">
        <dc:format>image/svg+xml</dc:format>
        <dc:type
           rdf:resource="http://purl.org/dc/dcmitype/StillImage" />
      </cc:Work>
    </rdf:RDF>
  </metadata>
  <defs
     id="defs10" />
  <sodipodi:namedview
     pagecolor="#ffffff"
     bordercolor="#666666"
     borderopacity="1"
     objecttolerance="10"
     gridtolerance="10"
     guidetolerance="10"
     inkscape:pageopacity="0"
     inkscape:pageshadow="2"
     inkscape:window-width="1920"
     inkscape:window-height="986"
     id="namedview8"
     showgrid="false"
     inkscape:zoom="12.5"
     inkscape:cx="32"
     inkscape:cy="32"
     inkscape:window-x="-11"
     inkscape:window-y="-11"
     inkscape:window-maximized="1"
     inkscape:current-layer="svg6" />
  <path
     fill="none"
     stroke="#e5e7eb"
     stroke-linecap="round"
     stroke-miterlimit="10"
     stroke-width="3"
     d="M43.64 20a5 5 0 113.61 8.46h-35.5M29.14 44a5 5 0 103.61-8.46h-21"
     id="path2" />
  <path
     fill="#374151"
     d="M46.08 35.46a4.08 4.08 0 012.92-1 4.08 4.08 0 012.92 1 3.44 3.44 0 011 2.64V42a3.49 3.49 0 01-1 2.66 4.12 4.12 0 01-2.92 1 4.12 4.12 0 01-2.92-1A3.46 3.46 0 0145 42v-3.9a3.41 3.41 0 011.08-2.64zm4.46 1.26a2.66 2.66 0 00-3.08 0 1.78 1.78 0 00-.54 1.38V42a1.78 1.78 0 00.54 1.38 2.67 2.67 0 003.08 0 1.78 1.78 0 00.54-1.38v-3.9a1.78 1.78 0 00-.54-1.38z"
     id="path4"
     style="fill:#99ff55" />
</svg>
