<?xml version="1.0" encoding="UTF-8" standalone="no"?>
<svg
   xmlns:dc="http://purl.org/dc/elements/1.1/"
   xmlns:cc="http://creativecommons.org/ns#"
   xmlns:rdf="http://www.w3.org/1999/02/22-rdf-syntax-ns#"
   xmlns:svg="http://www.w3.org/2000/svg"
   xmlns="http://www.w3.org/2000/svg"
   xmlns:sodipodi="http://sodipodi.sourceforge.net/DTD/sodipodi-0.dtd"
   xmlns:inkscape="http://www.inkscape.org/namespaces/inkscape"
   viewBox="0 0 64 64"
   version="1.1"
   id="svg8"
   sodipodi:docname="wind-beaufort-2.svg"
   inkscape:version="1.0.2-2 (e86c870879, 2021-01-15)">
  <metadata
     id="metadata14">
    <rdf:RDF>
      <cc:Work
         rdf:about="">
        <dc:format>image/svg+xml</dc:format>
        <dc:type
           rdf:resource="http://purl.org/dc/dcmitype/StillImage" />
      </cc:Work>
    </rdf:RDF>
  </metadata>
  <defs
     id="defs12" />
  <sodipodi:namedview
     pagecolor="#ffffff"
     bordercolor="#666666"
     borderopacity="1"
     objecttolerance="10"
     gridtolerance="10"
     guidetolerance="10"
     inkscape:pageopacity="0"
     inkscape:pageshadow="2"
     inkscape:window-width="1920"
     inkscape:window-height="986"
     id="namedview10"
     showgrid="false"
     inkscape:zoom="12.5"
     inkscape:cx="32"
     inkscape:cy="32"
     inkscape:window-x="-11"
     inkscape:window-y="-11"
     inkscape:window-maximized="1"
     inkscape:current-layer="svg8" />
  <path
     fill="none"
     stroke="#e5e7eb"
     stroke-dasharray="35 22"
     stroke-linecap="round"
     stroke-miterlimit="10"
     stroke-width="3"
     d="M43.64 20a5 5 0 113.61 8.46h-35.5"
     id="path2">
    <animate
       attributeName="stroke-dashoffset"
       dur="2s"
       repeatCount="indefinite"
       values="-57; 57" />
  </path>
  <path
     fill="none"
     stroke="#e5e7eb"
     stroke-dasharray="24 15"
     stroke-linecap="round"
     stroke-miterlimit="10"
     stroke-width="3"
     d="M29.14 44a5 5 0 103.61-8.46h-21"
     id="path4">
    <animate
       attributeName="stroke-dashoffset"
       begin="-.5s"
       dur="2s"
       repeatCount="indefinite"
       values="-39; 39" />
  </path>
  <path
     fill="#374151"
     d="M49.21 34.48a3.64 3.64 0 012.65 1 3.23 3.23 0 011 2.37 3.29 3.29 0 01-.9 2.48 10.49 10.49 0 01-3.28 1.82l-.22.08-.23.09-.22.09a.92.92 0 00-.23.12l-.19.11a1 1 0 00-.18.15l-.13.16a.34.34 0 00-.09.19.76.76 0 000 .21v.27h5a.58.58 0 01.4.11.55.55 0 01.11.4v.74a.51.51 0 01-.11.39.53.53 0 01-.4.12H45.7a.43.43 0 01-.51-.51v-1.15a3.33 3.33 0 01.23-1.28 2.32 2.32 0 01.71-.93 5.73 5.73 0 01.9-.61c.28-.15.65-.31 1.11-.5a8.51 8.51 0 001.94-.93 1.84 1.84 0 00.79-1.55 1.66 1.66 0 00-.48-1.2 1.74 1.74 0 00-1.26-.49 2.09 2.09 0 00-2.07 1.34.64.64 0 01-.25.35.54.54 0 01-.41 0l-.81-.3c-.34-.13-.45-.34-.33-.64a3.87 3.87 0 013.95-2.5z"
     id="path6"
     style="fill:#99ff55" />
</svg>
