<?xml version="1.0" encoding="UTF-8" standalone="no"?>
<svg
   xmlns:dc="http://purl.org/dc/elements/1.1/"
   xmlns:cc="http://creativecommons.org/ns#"
   xmlns:rdf="http://www.w3.org/1999/02/22-rdf-syntax-ns#"
   xmlns:svg="http://www.w3.org/2000/svg"
   xmlns="http://www.w3.org/2000/svg"
   xmlns:sodipodi="http://sodipodi.sourceforge.net/DTD/sodipodi-0.dtd"
   xmlns:inkscape="http://www.inkscape.org/namespaces/inkscape"
   viewBox="0 0 64 64"
   version="1.1"
   id="svg8"
   sodipodi:docname="wind-beaufort-5.svg"
   inkscape:version="1.0.2-2 (e86c870879, 2021-01-15)">
  <metadata
     id="metadata14">
    <rdf:RDF>
      <cc:Work
         rdf:about="">
        <dc:format>image/svg+xml</dc:format>
        <dc:type
           rdf:resource="http://purl.org/dc/dcmitype/StillImage" />
      </cc:Work>
    </rdf:RDF>
  </metadata>
  <defs
     id="defs12" />
  <sodipodi:namedview
     pagecolor="#ffffff"
     bordercolor="#666666"
     borderopacity="1"
     objecttolerance="10"
     gridtolerance="10"
     guidetolerance="10"
     inkscape:pageopacity="0"
     inkscape:pageshadow="2"
     inkscape:window-width="1920"
     inkscape:window-height="986"
     id="namedview10"
     showgrid="false"
     inkscape:zoom="12.5"
     inkscape:cx="38.633259"
     inkscape:cy="32"
     inkscape:window-x="-11"
     inkscape:window-y="-11"
     inkscape:window-maximized="1"
     inkscape:current-layer="svg8" />
  <path
     fill="none"
     stroke="#e5e7eb"
     stroke-dasharray="35 22"
     stroke-linecap="round"
     stroke-miterlimit="10"
     stroke-width="3"
     d="M43.64 20a5 5 0 113.61 8.46h-35.5"
     id="path2">
    <animate
       attributeName="stroke-dashoffset"
       dur="1.7s"
       repeatCount="indefinite"
       values="-57; 57" />
  </path>
  <path
     fill="none"
     stroke="#e5e7eb"
     stroke-dasharray="24 15"
     stroke-linecap="round"
     stroke-miterlimit="10"
     stroke-width="3"
     d="M29.14 44a5 5 0 103.61-8.46h-21"
     id="path4">
    <animate
       attributeName="stroke-dashoffset"
       begin="-.425s"
       dur="1.7s"
       repeatCount="indefinite"
       values="-39; 39" />
  </path>
  <path
     fill="#374151"
     d="M52.37 34.82a.57.57 0 01.11.39V36a.42.42 0 01-.51.51h-4.29l-.22 2.21h1.81a3.62 3.62 0 012.71.95 3.32 3.32 0 01.94 2.33 3.42 3.42 0 01-1 2.52 3.69 3.69 0 01-2.75 1c-2.12 0-3.48-.81-4.07-2.45a.46.46 0 01.32-.66l.83-.28a.54.54 0 01.4 0 .62.62 0 01.24.36 2.15 2.15 0 002.26 1.31 1.8 1.8 0 001.31-.47 1.71 1.71 0 00.47-1.33 1.53 1.53 0 00-.48-1.19 1.82 1.82 0 00-1.28-.45H46a.55.55 0 01-.45-.14.6.6 0 01-.09-.46l.45-4.36a1 1 0 01.22-.58 1 1 0 01.61-.15H52a.55.55 0 01.37.15z"
     id="path6"
     style="fill:#ffdd55" />
</svg>
