<?xml version="1.0" encoding="UTF-8" standalone="no"?>
<svg
   xmlns:dc="http://purl.org/dc/elements/1.1/"
   xmlns:cc="http://creativecommons.org/ns#"
   xmlns:rdf="http://www.w3.org/1999/02/22-rdf-syntax-ns#"
   xmlns:svg="http://www.w3.org/2000/svg"
   xmlns="http://www.w3.org/2000/svg"
   xmlns:sodipodi="http://sodipodi.sourceforge.net/DTD/sodipodi-0.dtd"
   xmlns:inkscape="http://www.inkscape.org/namespaces/inkscape"
   viewBox="0 0 64 64"
   version="1.1"
   id="svg8"
   sodipodi:docname="wind-beaufort-10.svg"
   inkscape:version="1.0.2-2 (e86c870879, 2021-01-15)">
  <metadata
     id="metadata14">
    <rdf:RDF>
      <cc:Work
         rdf:about="">
        <dc:format>image/svg+xml</dc:format>
        <dc:type
           rdf:resource="http://purl.org/dc/dcmitype/StillImage" />
      </cc:Work>
    </rdf:RDF>
  </metadata>
  <defs
     id="defs12" />
  <sodipodi:namedview
     pagecolor="#ffffff"
     bordercolor="#666666"
     borderopacity="1"
     objecttolerance="10"
     gridtolerance="10"
     guidetolerance="10"
     inkscape:pageopacity="0"
     inkscape:pageshadow="2"
     inkscape:window-width="1920"
     inkscape:window-height="986"
     id="namedview10"
     showgrid="false"
     inkscape:zoom="12.5"
     inkscape:cx="32"
     inkscape:cy="32"
     inkscape:window-x="-11"
     inkscape:window-y="-11"
     inkscape:window-maximized="1"
     inkscape:current-layer="svg8" />
  <path
     fill="none"
     stroke="#e5e7eb"
     stroke-dasharray="35 22"
     stroke-linecap="round"
     stroke-miterlimit="10"
     stroke-width="3"
     d="M43.64 20a5 5 0 113.61 8.46h-35.5"
     id="path2">
    <animate
       attributeName="stroke-dashoffset"
       dur="1.2s"
       repeatCount="indefinite"
       values="-57; 57" />
  </path>
  <path
     fill="none"
     stroke="#e5e7eb"
     stroke-dasharray="24 15"
     stroke-linecap="round"
     stroke-miterlimit="10"
     stroke-width="3"
     d="M29.14 44a5 5 0 103.61-8.46h-21"
     id="path4">
    <animate
       attributeName="stroke-dashoffset"
       begin="-.3s"
       dur="1.2s"
       repeatCount="indefinite"
       values="-39; 39" />
  </path>
  <path
     fill="#374151"
     d="M46.28 34.82a.57.57 0 01.11.39v9.64a.43.43 0 01-.51.51H45a.52.52 0 01-.4-.12.51.51 0 01-.11-.39V37l-2.1 1.17a.65.65 0 01-.47.12.6.6 0 01-.3-.31l-.37-.67a.53.53 0 01-.07-.4c0-.1.14-.19.31-.29l2.92-1.68a1.37 1.37 0 01.72-.21h.72a.55.55 0 01.43.09zM49.38 35.46a4.84 4.84 0 015.84 0 3.44 3.44 0 011 2.64V42a3.49 3.49 0 01-1 2.66 4.88 4.88 0 01-5.84 0A3.42 3.42 0 0148.33 42v-3.9a3.38 3.38 0 011.05-2.64zm4.46 1.26a2.66 2.66 0 00-3.08 0 1.78 1.78 0 00-.55 1.38V42a1.78 1.78 0 00.55 1.38 2.67 2.67 0 003.08 0 1.78 1.78 0 00.54-1.38v-3.9a1.78 1.78 0 00-.54-1.38z"
     id="path6"
     style="fill:#ff0000" />
</svg>
