<?xml version="1.0" encoding="UTF-8" standalone="no"?>
<svg
   xmlns:dc="http://purl.org/dc/elements/1.1/"
   xmlns:cc="http://creativecommons.org/ns#"
   xmlns:rdf="http://www.w3.org/1999/02/22-rdf-syntax-ns#"
   xmlns:svg="http://www.w3.org/2000/svg"
   xmlns="http://www.w3.org/2000/svg"
   xmlns:sodipodi="http://sodipodi.sourceforge.net/DTD/sodipodi-0.dtd"
   xmlns:inkscape="http://www.inkscape.org/namespaces/inkscape"
   viewBox="0 0 64 64"
   version="1.1"
   id="svg8"
   sodipodi:docname="wind-beaufort-8.svg"
   inkscape:version="1.0.2-2 (e86c870879, 2021-01-15)">
  <metadata
     id="metadata14">
    <rdf:RDF>
      <cc:Work
         rdf:about="">
        <dc:format>image/svg+xml</dc:format>
        <dc:type
           rdf:resource="http://purl.org/dc/dcmitype/StillImage" />
      </cc:Work>
    </rdf:RDF>
  </metadata>
  <defs
     id="defs12" />
  <sodipodi:namedview
     pagecolor="#ffffff"
     bordercolor="#666666"
     borderopacity="1"
     objecttolerance="10"
     gridtolerance="10"
     guidetolerance="10"
     inkscape:pageopacity="0"
     inkscape:pageshadow="2"
     inkscape:window-width="1920"
     inkscape:window-height="986"
     id="namedview10"
     showgrid="false"
     inkscape:zoom="12.5"
     inkscape:cx="32"
     inkscape:cy="32"
     inkscape:window-x="-11"
     inkscape:window-y="-11"
     inkscape:window-maximized="1"
     inkscape:current-layer="svg8" />
  <path
     fill="none"
     stroke="#e5e7eb"
     stroke-dasharray="35 22"
     stroke-linecap="round"
     stroke-miterlimit="10"
     stroke-width="3"
     d="M43.64 20a5 5 0 113.61 8.46h-35.5"
     id="path2">
    <animate
       attributeName="stroke-dashoffset"
       dur="1.4s"
       repeatCount="indefinite"
       values="-57; 57" />
  </path>
  <path
     fill="none"
     stroke="#e5e7eb"
     stroke-dasharray="24 15"
     stroke-linecap="round"
     stroke-miterlimit="10"
     stroke-width="3"
     d="M29.14 44a5 5 0 103.61-8.46h-21"
     id="path4">
    <animate
       attributeName="stroke-dashoffset"
       begin="-.35s"
       dur="1.4s"
       repeatCount="indefinite"
       values="-39; 39" />
  </path>
  <path
     fill="#374151"
     d="M46.26 35.27a4.25 4.25 0 012.74-.79 4.53 4.53 0 012.79.73 2.53 2.53 0 011 2.12 2.7 2.7 0 01-1.53 2.45 3.53 3.53 0 011.37 1 2.58 2.58 0 01.49 1.66 2.84 2.84 0 01-1 2.29 4.71 4.71 0 01-3.09.84q-4.07 0-4.06-2.89A2.9 2.9 0 0146.76 40a2.77 2.77 0 01-1.49-2.56 2.65 2.65 0 01.99-2.17zm4.81 6.82a.77.77 0 00-.15-.33l-.2-.24a.75.75 0 00-.28-.21l-.33-.16-.4-.13-.42-.11-.47-.12-.47-.1a1.89 1.89 0 00-1.52 1.8c0 1 .73 1.46 2.18 1.46a2.68 2.68 0 001.62-.38 1.3 1.3 0 00.48-1.1 2.33 2.33 0 00-.04-.38zm-.66-5.62a2.36 2.36 0 00-1.4-.35c-1.23 0-1.85.46-1.85 1.39a1.15 1.15 0 00.45 1 4.17 4.17 0 001.35.56l.6.15a1.85 1.85 0 001.35-1.71 1.17 1.17 0 00-.5-1.04z"
     id="path6"
     style="fill:#ff7f2a" />
</svg>
